{"glyphs":{"0":{"ha":804,"x_min":68,"x_max":736,"o":"m 736 974 l 736 0 l 68 0 l 68 974 l 736 974 m 561 807 l 255 807 l 255 167 l 561 167 l 561 807 z "},"1":{"ha":323,"x_min":68,"x_max":255,"o":"m 255 0 l 68 0 l 68 974 l 255 974 l 255 0 z "},"2":{"ha":804,"x_min":68,"x_max":736,"o":"m 736 167 l 736 0 l 68 0 l 68 566 l 561 566 l 561 807 l 68 807 l 68 974 l 736 974 l 736 408 l 255 408 l 255 167 l 736 167 z "},"3":{"ha":804,"x_min":68,"x_max":736,"o":"m 68 807 l 68 974 l 736 974 l 736 0 l 68 0 l 68 167 l 561 167 l 561 408 l 68 408 l 68 566 l 561 566 l 561 807 l 68 807 z "},"4":{"ha":804,"x_min":68,"x_max":736,"o":"m 68 408 l 68 974 l 255 974 l 255 566 l 561 566 l 561 974 l 736 974 l 736 0 l 561 0 l 561 408 l 68 408 z "},"5":{"ha":804,"x_min":68,"x_max":736,"o":"m 68 408 l 68 974 l 736 974 l 736 807 l 255 807 l 255 566 l 736 566 l 736 0 l 68 0 l 68 167 l 561 167 l 561 408 l 68 408 z "},"6":{"ha":804,"x_min":68,"x_max":736,"o":"m 255 807 l 255 566 l 736 566 l 736 0 l 68 0 l 68 974 l 736 974 l 736 807 l 255 807 m 255 408 l 255 167 l 561 167 l 561 408 l 255 408 z "},"7":{"ha":804,"x_min":68,"x_max":736,"o":"m 561 807 l 68 807 l 68 974 l 736 974 l 736 0 l 561 0 l 561 807 z "},"8":{"ha":804,"x_min":68,"x_max":736,"o":"m 736 974 l 736 0 l 68 0 l 68 974 l 736 974 m 255 408 l 255 167 l 561 167 l 561 408 l 255 408 m 255 807 l 255 566 l 561 566 l 561 807 l 255 807 z "},"9":{"ha":804,"x_min":68,"x_max":736,"o":"m 561 167 l 561 408 l 68 408 l 68 974 l 736 974 l 736 0 l 68 0 l 68 167 l 561 167 m 255 807 l 255 566 l 561 566 l 561 807 l 255 807 z "}," ":{"ha":345,"x_min":0,"x_max":0,"o":""},"!":{"ha":323,"x_min":68,"x_max":255,"o":"m 68 265 l 68 974 l 255 974 l 255 265 l 68 265 m 255 175 l 255 0 l 68 0 l 68 175 l 255 175 z "},"\"":{"ha":473,"x_min":68,"x_max":406,"o":"m 202 974 l 202 701 l 68 701 l 68 974 l 202 974 m 406 974 l 406 701 l 271 701 l 271 974 l 406 974 z "},"#":{"ha":804,"x_min":68,"x_max":736,"o":"m 463 256 l 341 256 l 341 0 l 154 0 l 154 256 l 68 256 l 68 415 l 154 415 l 154 570 l 68 570 l 68 729 l 154 729 l 154 974 l 341 974 l 341 729 l 463 729 l 463 974 l 650 974 l 650 729 l 736 729 l 736 570 l 650 570 l 650 415 l 736 415 l 736 256 l 650 256 l 650 0 l 463 0 l 463 256 m 341 415 l 463 415 l 463 570 l 341 570 l 341 415 z "},"$":{"ha":804,"x_min":68,"x_max":736,"o":"m 561 167 l 561 408 l 68 408 l 68 974 l 347 974 l 347 1076 l 460 1076 l 460 974 l 736 974 l 736 807 l 255 807 l 255 566 l 736 566 l 736 0 l 460 0 l 460 -114 l 347 -114 l 347 0 l 68 0 l 68 167 l 561 167 z "},"%":{"ha":1061,"x_min":68,"x_max":993,"o":"m 402 974 l 402 487 l 68 487 l 68 974 l 402 974 m 315 890 l 161 890 l 161 570 l 315 570 l 315 890 m 993 490 l 993 3 l 659 3 l 659 490 l 993 490 m 905 406 l 752 406 l 752 86 l 905 86 l 905 406 m 308 0 l 121 0 l 757 974 l 944 974 l 308 0 z "},"&":{"ha":804,"x_min":68,"x_max":736,"o":"m 255 408 l 255 167 l 561 167 l 561 408 l 255 408 m 561 566 l 561 746 l 736 746 l 736 0 l 68 0 l 68 974 l 736 974 l 736 807 l 255 807 l 255 566 l 561 566 z "},"'":{"ha":270,"x_min":68,"x_max":202,"o":"m 202 974 l 202 701 l 68 701 l 68 974 l 202 974 z "},"(":{"ha":416,"x_min":68,"x_max":348,"o":"m 348 0 l 138 0 l 68 85 l 68 888 l 138 974 l 348 974 l 348 807 l 243 807 l 243 167 l 348 167 l 348 0 z "},")":{"ha":416,"x_min":68,"x_max":348,"o":"m 68 167 l 172 167 l 172 807 l 68 807 l 68 974 l 277 974 l 348 888 l 348 85 l 278 0 l 68 0 l 68 167 z "},"*":{"ha":393,"x_min":68,"x_max":325,"o":"m 170 974 l 170 892 l 105 921 l 68 864 l 146 823 l 89 762 l 138 722 l 191 791 l 248 718 l 292 758 l 248 827 l 325 860 l 296 917 l 231 897 l 231 974 l 170 974 z "},"+":{"ha":617,"x_min":68,"x_max":549,"o":"m 395 408 l 395 235 l 237 235 l 237 408 l 68 408 l 68 566 l 237 566 l 237 717 l 395 717 l 395 566 l 549 566 l 549 408 l 395 408 z "},",":{"ha":323,"x_min":68,"x_max":255,"o":"m 151 0 l 68 0 l 68 175 l 255 175 l 255 0 l 179 -163 l 73 -163 l 151 0 z "},"-":{"ha":489,"x_min":68,"x_max":421,"o":"m 68 566 l 421 566 l 421 408 l 68 408 l 68 566 z "},".":{"ha":323,"x_min":68,"x_max":255,"o":"m 255 175 l 255 0 l 68 0 l 68 175 l 255 175 z "},"/":{"ha":665,"x_min":68,"x_max":597,"o":"m 255 0 l 68 0 l 410 974 l 597 974 l 255 0 z "},":":{"ha":323,"x_min":68,"x_max":255,"o":"m 255 631 l 255 456 l 68 456 l 68 631 l 255 631 m 255 175 l 255 0 l 68 0 l 68 175 l 255 175 z "},";":{"ha":323,"x_min":68,"x_max":255,"o":"m 255 631 l 255 456 l 68 456 l 68 631 l 255 631 m 151 0 l 68 0 l 68 175 l 255 175 l 255 0 l 179 -163 l 73 -163 l 151 0 z "},"<":{"ha":617,"x_min":68,"x_max":549,"o":"m 68 688 l 549 871 l 549 713 l 195 556 l 549 355 l 549 196 l 68 432 l 68 688 z "},"=":{"ha":617,"x_min":68,"x_max":549,"o":"m 68 749 l 549 749 l 549 591 l 68 591 l 68 749 m 68 469 l 549 469 l 549 310 l 68 310 l 68 469 z "},">":{"ha":617,"x_min":68,"x_max":549,"o":"m 549 432 l 68 196 l 68 355 l 422 556 l 68 713 l 68 871 l 549 688 l 549 432 z "},"?":{"ha":804,"x_min":68,"x_max":736,"o":"m 68 253 l 68 566 l 561 566 l 561 807 l 68 807 l 68 974 l 736 974 l 736 408 l 255 408 l 255 253 l 68 253 m 255 175 l 255 0 l 68 0 l 68 175 l 255 175 z "},"@":{"ha":804,"x_min":68,"x_max":736,"o":"m 561 408 l 561 550 l 448 550 l 448 408 l 561 408 m 561 681 l 561 807 l 255 807 l 255 167 l 736 167 l 736 0 l 68 0 l 68 974 l 736 974 l 736 286 l 318 286 l 318 681 l 561 681 z "},"A":{"ha":804,"x_min":68,"x_max":736,"o":"m 561 408 l 255 408 l 255 0 l 68 0 l 68 974 l 736 974 l 736 0 l 561 0 l 561 408 m 255 807 l 255 566 l 561 566 l 561 807 l 255 807 z "},"B":{"ha":804,"x_min":68,"x_max":736,"o":"m 736 974 l 736 605 l 654 484 l 736 361 l 736 0 l 68 0 l 68 974 l 736 974 m 255 408 l 255 167 l 561 167 l 561 408 l 255 408 m 255 807 l 255 566 l 561 566 l 561 807 l 255 807 z "},"C":{"ha":804,"x_min":68,"x_max":736,"o":"m 255 167 l 736 167 l 736 0 l 68 0 l 68 974 l 736 974 l 736 807 l 255 807 l 255 167 z "},"D":{"ha":804,"x_min":68,"x_max":736,"o":"m 68 0 l 68 974 l 666 974 l 736 888 l 736 85 l 667 0 l 68 0 m 561 807 l 255 807 l 255 167 l 561 167 l 561 807 z "},"E":{"ha":804,"x_min":68,"x_max":736,"o":"m 255 807 l 255 566 l 736 566 l 736 408 l 255 408 l 255 167 l 736 167 l 736 0 l 68 0 l 68 974 l 736 974 l 736 807 l 255 807 z "},"F":{"ha":804,"x_min":68,"x_max":736,"o":"m 255 0 l 68 0 l 68 974 l 736 974 l 736 807 l 255 807 l 255 566 l 736 566 l 736 408 l 255 408 l 255 0 z "},"G":{"ha":804,"x_min":68,"x_max":736,"o":"m 367 566 l 736 566 l 736 0 l 68 0 l 68 974 l 736 974 l 736 807 l 255 807 l 255 167 l 561 167 l 561 408 l 367 408 l 367 566 z "},"H":{"ha":804,"x_min":68,"x_max":736,"o":"m 255 0 l 68 0 l 68 974 l 255 974 l 255 566 l 561 566 l 561 974 l 736 974 l 736 0 l 561 0 l 561 408 l 255 408 l 255 0 z "},"I":{"ha":323,"x_min":68,"x_max":255,"o":"m 255 0 l 68 0 l 68 974 l 255 974 l 255 0 z "},"J":{"ha":804,"x_min":68,"x_max":736,"o":"m 255 420 l 255 167 l 561 167 l 561 974 l 736 974 l 736 0 l 68 0 l 68 420 l 255 420 z "},"K":{"ha":804,"x_min":68,"x_max":736,"o":"m 255 0 l 68 0 l 68 974 l 255 974 l 255 566 l 561 974 l 736 974 l 410 499 l 736 0 l 561 0 l 255 408 l 255 0 z "},"L":{"ha":804,"x_min":68,"x_max":736,"o":"m 255 167 l 736 167 l 736 0 l 68 0 l 68 974 l 255 974 l 255 167 z "},"M":{"ha":886,"x_min":68,"x_max":818,"o":"m 255 0 l 68 0 l 68 974 l 255 974 l 445 440 l 642 974 l 818 974 l 818 0 l 642 0 l 642 408 l 506 0 l 396 0 l 255 408 l 255 0 z "},"N":{"ha":804,"x_min":68,"x_max":736,"o":"m 255 0 l 68 0 l 68 974 l 255 974 l 561 428 l 561 974 l 736 974 l 736 0 l 561 0 l 255 562 l 255 0 z "},"O":{"ha":804,"x_min":68,"x_max":736,"o":"m 736 974 l 736 0 l 68 0 l 68 974 l 736 974 m 561 807 l 255 807 l 255 167 l 561 167 l 561 807 z "},"P":{"ha":804,"x_min":68,"x_max":736,"o":"m 255 0 l 68 0 l 68 974 l 736 974 l 736 408 l 255 408 l 255 0 m 255 807 l 255 566 l 561 566 l 561 807 l 255 807 z "},"Q":{"ha":804,"x_min":68,"x_max":736,"o":"m 561 177 l 561 807 l 255 807 l 255 167 l 405 167 l 342 286 l 506 286 l 561 177 m 494 0 l 68 0 l 68 974 l 736 974 l 736 0 l 650 0 l 732 -163 l 581 -163 l 494 0 z "},"R":{"ha":804,"x_min":68,"x_max":736,"o":"m 255 807 l 255 566 l 561 566 l 561 807 l 255 807 m 68 0 l 68 974 l 736 974 l 736 408 l 508 408 l 736 0 l 561 0 l 321 408 l 255 408 l 255 0 l 68 0 z "},"S":{"ha":804,"x_min":68,"x_max":736,"o":"m 68 408 l 68 974 l 736 974 l 736 807 l 255 807 l 255 566 l 736 566 l 736 0 l 68 0 l 68 167 l 561 167 l 561 408 l 68 408 z "},"T":{"ha":804,"x_min":68,"x_max":736,"o":"m 321 807 l 68 807 l 68 974 l 736 974 l 736 807 l 508 807 l 508 0 l 321 0 l 321 807 z "},"U":{"ha":804,"x_min":68,"x_max":736,"o":"m 561 974 l 736 974 l 736 0 l 68 0 l 68 974 l 255 974 l 255 167 l 561 167 l 561 974 z "},"V":{"ha":804,"x_min":68,"x_max":736,"o":"m 561 974 l 736 974 l 524 0 l 296 0 l 68 974 l 255 974 l 401 224 l 561 974 z "},"W":{"ha":1084,"x_min":68,"x_max":1017,"o":"m 543 445 l 463 0 l 241 0 l 68 974 l 259 974 l 351 323 l 450 974 l 635 974 l 733 323 l 825 974 l 1017 974 l 843 0 l 621 0 l 543 445 z "},"X":{"ha":807,"x_min":68,"x_max":739,"o":"m 313 487 l 307 487 l 71 974 l 258 974 l 409 665 l 564 974 l 739 974 l 494 488 l 500 488 l 736 1 l 549 1 l 398 310 l 243 1 l 68 1 l 313 487 z "},"Y":{"ha":804,"x_min":68,"x_max":736,"o":"m 491 487 l 491 0 l 304 0 l 304 487 l 68 974 l 255 974 l 406 665 l 561 974 l 736 974 l 491 487 z "},"Z":{"ha":804,"x_min":68,"x_max":736,"o":"m 508 807 l 68 807 l 68 974 l 736 974 l 736 807 l 304 167 l 736 167 l 736 0 l 68 0 l 68 167 l 508 807 z "},"[":{"ha":415,"x_min":68,"x_max":347,"o":"m 347 0 l 68 0 l 68 974 l 347 974 l 347 807 l 243 807 l 243 167 l 347 167 l 347 0 z "},"\\":{"ha":665,"x_min":68,"x_max":597,"o":"m 68 974 l 255 974 l 597 0 l 410 0 l 68 974 z "},"]":{"ha":415,"x_min":68,"x_max":347,"o":"m 68 167 l 172 167 l 172 807 l 68 807 l 68 974 l 347 974 l 347 0 l 68 0 l 68 167 z "},"^":{"ha":811,"x_min":68,"x_max":743,"o":"m 560 974 l 743 492 l 585 492 l 428 847 l 227 492 l 68 492 l 304 974 l 560 974 z "},"_":{"ha":763,"x_min":68,"x_max":695,"o":"m 695 4 l 695 -81 l 68 -81 l 68 4 l 695 4 z "},"`":{"ha":307,"x_min":68,"x_max":239,"o":"m 68 1141 l 138 998 l 239 998 l 170 1141 l 68 1141 z "},"a":{"ha":804,"x_min":68,"x_max":736,"o":"m 561 408 l 255 408 l 255 0 l 68 0 l 68 974 l 736 974 l 736 0 l 561 0 l 561 408 m 255 807 l 255 566 l 561 566 l 561 807 l 255 807 z "},"b":{"ha":804,"x_min":68,"x_max":736,"o":"m 736 974 l 736 605 l 654 484 l 736 361 l 736 0 l 68 0 l 68 974 l 736 974 m 255 408 l 255 167 l 561 167 l 561 408 l 255 408 m 255 807 l 255 566 l 561 566 l 561 807 l 255 807 z "},"c":{"ha":804,"x_min":68,"x_max":736,"o":"m 255 167 l 736 167 l 736 0 l 68 0 l 68 974 l 736 974 l 736 807 l 255 807 l 255 167 z "},"d":{"ha":804,"x_min":68,"x_max":736,"o":"m 68 0 l 68 974 l 666 974 l 736 888 l 736 85 l 667 0 l 68 0 m 561 807 l 255 807 l 255 167 l 561 167 l 561 807 z "},"e":{"ha":804,"x_min":68,"x_max":736,"o":"m 255 807 l 255 566 l 736 566 l 736 408 l 255 408 l 255 167 l 736 167 l 736 0 l 68 0 l 68 974 l 736 974 l 736 807 l 255 807 z "},"f":{"ha":804,"x_min":68,"x_max":736,"o":"m 255 0 l 68 0 l 68 974 l 736 974 l 736 807 l 255 807 l 255 566 l 736 566 l 736 408 l 255 408 l 255 0 z "},"g":{"ha":804,"x_min":68,"x_max":736,"o":"m 367 566 l 736 566 l 736 0 l 68 0 l 68 974 l 736 974 l 736 807 l 255 807 l 255 167 l 561 167 l 561 408 l 367 408 l 367 566 z "},"h":{"ha":804,"x_min":68,"x_max":736,"o":"m 255 0 l 68 0 l 68 974 l 255 974 l 255 566 l 561 566 l 561 974 l 736 974 l 736 0 l 561 0 l 561 408 l 255 408 l 255 0 z "},"i":{"ha":323,"x_min":68,"x_max":255,"o":"m 255 0 l 68 0 l 68 974 l 255 974 l 255 0 z "},"j":{"ha":804,"x_min":68,"x_max":736,"o":"m 255 420 l 255 167 l 561 167 l 561 974 l 736 974 l 736 0 l 68 0 l 68 420 l 255 420 z "},"k":{"ha":804,"x_min":68,"x_max":736,"o":"m 255 0 l 68 0 l 68 974 l 255 974 l 255 566 l 561 974 l 736 974 l 410 499 l 736 0 l 561 0 l 255 408 l 255 0 z "},"l":{"ha":804,"x_min":68,"x_max":736,"o":"m 255 167 l 736 167 l 736 0 l 68 0 l 68 974 l 255 974 l 255 167 z "},"m":{"ha":886,"x_min":68,"x_max":818,"o":"m 255 0 l 68 0 l 68 974 l 255 974 l 445 440 l 642 974 l 818 974 l 818 0 l 642 0 l 642 408 l 506 0 l 396 0 l 255 408 l 255 0 z "},"n":{"ha":804,"x_min":68,"x_max":736,"o":"m 255 0 l 68 0 l 68 974 l 255 974 l 561 428 l 561 974 l 736 974 l 736 0 l 561 0 l 255 562 l 255 0 z "},"o":{"ha":804,"x_min":68,"x_max":736,"o":"m 736 974 l 736 0 l 68 0 l 68 974 l 736 974 m 561 807 l 255 807 l 255 167 l 561 167 l 561 807 z "},"p":{"ha":804,"x_min":68,"x_max":736,"o":"m 255 0 l 68 0 l 68 974 l 736 974 l 736 408 l 255 408 l 255 0 m 255 807 l 255 566 l 561 566 l 561 807 l 255 807 z "},"q":{"ha":804,"x_min":68,"x_max":736,"o":"m 561 177 l 561 807 l 255 807 l 255 167 l 405 167 l 342 286 l 506 286 l 561 177 m 494 0 l 68 0 l 68 974 l 736 974 l 736 0 l 650 0 l 732 -163 l 581 -163 l 494 0 z "},"r":{"ha":804,"x_min":68,"x_max":736,"o":"m 255 807 l 255 566 l 561 566 l 561 807 l 255 807 m 68 0 l 68 974 l 736 974 l 736 408 l 508 408 l 736 0 l 561 0 l 321 408 l 255 408 l 255 0 l 68 0 z "},"s":{"ha":804,"x_min":68,"x_max":736,"o":"m 68 408 l 68 974 l 736 974 l 736 807 l 255 807 l 255 566 l 736 566 l 736 0 l 68 0 l 68 167 l 561 167 l 561 408 l 68 408 z "},"t":{"ha":804,"x_min":68,"x_max":736,"o":"m 321 807 l 68 807 l 68 974 l 736 974 l 736 807 l 508 807 l 508 0 l 321 0 l 321 807 z "},"u":{"ha":804,"x_min":68,"x_max":736,"o":"m 561 974 l 736 974 l 736 0 l 68 0 l 68 974 l 255 974 l 255 167 l 561 167 l 561 974 z "},"v":{"ha":804,"x_min":68,"x_max":736,"o":"m 561 974 l 736 974 l 524 0 l 296 0 l 68 974 l 255 974 l 401 224 l 561 974 z "},"w":{"ha":1084,"x_min":68,"x_max":1017,"o":"m 543 445 l 463 0 l 241 0 l 68 974 l 259 974 l 351 323 l 450 974 l 635 974 l 733 323 l 825 974 l 1017 974 l 843 0 l 621 0 l 543 445 z "},"x":{"ha":807,"x_min":68,"x_max":739,"o":"m 313 487 l 307 487 l 71 974 l 258 974 l 409 665 l 564 974 l 739 974 l 494 488 l 500 488 l 736 1 l 549 1 l 398 310 l 243 1 l 68 1 l 313 487 z "},"y":{"ha":804,"x_min":68,"x_max":736,"o":"m 491 487 l 491 0 l 304 0 l 304 487 l 68 974 l 255 974 l 406 665 l 561 974 l 736 974 l 491 487 z "},"z":{"ha":804,"x_min":68,"x_max":736,"o":"m 508 807 l 68 807 l 68 974 l 736 974 l 736 807 l 304 167 l 736 167 l 736 0 l 68 0 l 68 167 l 508 807 z "},"{":{"ha":492,"x_min":68,"x_max":424,"o":"m 144 555 l 144 888 l 214 974 l 424 974 l 424 807 l 319 807 l 319 552 l 274 488 l 319 437 l 319 167 l 424 167 l 424 0 l 214 0 l 144 85 l 144 430 l 68 485 l 144 555 z "},"|":{"ha":233,"x_min":68,"x_max":165,"o":"m 165 1125 l 165 -106 l 68 -106 l 68 1125 l 165 1125 z "},"}":{"ha":492,"x_min":68,"x_max":424,"o":"m 424 485 l 348 430 l 348 85 l 278 0 l 68 0 l 68 167 l 172 167 l 172 437 l 218 488 l 172 552 l 172 807 l 68 807 l 68 974 l 277 974 l 348 888 l 348 555 l 424 485 z "},"~":{"ha":600,"x_min":68,"x_max":532,"o":"m 68 541 l 123 439 q 300 453 193 518 q 532 532 407 389 l 467 611 q 293 586 374 528 q 68 541 212 644 z "},"¡":{"ha":323,"x_min":68,"x_max":255,"o":"m 255 709 l 255 0 l 68 0 l 68 709 l 255 709 m 68 799 l 68 974 l 255 974 l 255 799 l 68 799 z "},"¢":{"ha":804,"x_min":68,"x_max":736,"o":"m 255 632 l 255 391 l 736 391 l 736 233 l 460 233 l 460 115 l 347 115 l 347 233 l 68 233 l 68 799 l 347 799 l 347 901 l 460 901 l 460 799 l 736 799 l 736 632 l 255 632 z "},"£":{"ha":804,"x_min":68,"x_max":736,"o":"m 736 974 l 736 673 l 561 673 l 561 807 l 361 807 l 361 566 l 481 566 l 481 408 l 361 408 l 361 167 l 736 167 l 736 0 l 68 0 l 68 167 l 174 167 l 174 408 l 70 408 l 70 566 l 174 566 l 174 974 l 736 974 z "},"¤":{"ha":702,"x_min":68,"x_max":634,"o":"m 496 662 l 573 744 l 634 683 l 556 600 q 604 447 604 534 q 545 278 604 350 l 608 195 l 546 134 l 480 220 q 349 184 422 184 q 205 229 268 184 l 129 148 l 68 210 l 144 290 q 94 447 94 358 q 168 631 94 554 l 98 722 l 159 783 l 235 683 q 349 709 287 709 q 496 662 432 709 m 349 612 q 240 565 286 612 q 195 453 195 519 q 240 341 195 388 q 349 295 286 295 q 457 341 412 295 q 503 453 503 388 q 457 565 503 519 q 349 612 412 612 z "},"¥":{"ha":804,"x_min":68,"x_max":736,"o":"m 291 513 l 68 974 l 255 974 l 406 665 l 561 974 l 736 974 l 505 513 l 607 513 l 607 363 l 491 363 l 491 293 l 607 293 l 607 142 l 491 142 l 491 0 l 304 0 l 304 142 l 179 142 l 179 293 l 304 293 l 304 363 l 179 363 l 179 513 l 291 513 z "},"¦":{"ha":234,"x_min":68,"x_max":166,"o":"m 166 452 l 166 -106 l 68 -106 l 68 452 l 166 452 m 68 578 l 68 1125 l 166 1125 l 166 578 l 68 578 z "},"§":{"ha":805,"x_min":68,"x_max":737,"o":"m 68 1154 l 737 1154 l 737 987 l 256 987 l 256 754 l 736 754 l 736 -220 l 68 -220 l 68 -53 l 561 -53 l 561 180 l 68 180 l 68 1154 m 255 587 l 255 347 l 562 347 l 562 587 l 255 587 z "},"¨":{"ha":600,"x_min":68,"x_max":532,"o":"m 255 1157 l 255 982 l 68 982 l 68 1157 l 255 1157 m 532 1158 l 532 983 l 345 983 l 345 1158 l 532 1158 z "},"©":{"ha":1146,"x_min":68,"x_max":1078,"o":"m 573 1014 q 822 949 701 1014 q 1010 763 943 884 q 1078 510 1078 642 q 1011 258 1078 378 q 824 71 945 137 q 573 5 704 5 q 322 71 441 5 q 135 258 202 137 q 68 510 68 378 q 136 763 68 642 q 325 949 204 884 q 573 1014 446 1014 m 573 970 q 347 911 457 970 q 174 741 237 851 q 112 510 112 630 q 173 280 112 390 q 344 110 234 171 q 573 48 454 48 q 802 110 692 48 q 974 280 912 171 q 1035 510 1035 390 q 972 741 1035 630 q 800 911 910 851 q 573 970 690 970 m 823 834 l 838 635 l 810 635 q 728 761 783 720 q 594 803 673 803 q 490 779 535 803 q 415 714 444 754 q 379 632 393 683 q 365 526 365 581 q 430 303 365 375 q 601 232 495 232 q 823 347 739 232 l 849 334 q 577 189 750 189 q 340 281 434 189 q 247 505 247 374 q 347 738 247 642 q 601 834 446 834 q 656 830 635 834 q 734 808 677 826 q 759 802 751 802 q 779 808 770 802 q 795 834 787 814 l 823 834 z "},"ª":{"ha":470,"x_min":68,"x_max":402,"o":"m 315 691 l 161 691 l 161 487 l 68 487 l 68 974 l 402 974 l 402 487 l 315 487 l 315 691 m 161 890 l 161 770 l 315 770 l 315 890 l 161 890 z "},"«":{"ha":537,"x_min":68,"x_max":469,"o":"m 237 431 l 157 522 l 235 603 l 235 783 l 68 631 l 68 428 l 237 280 l 237 431 m 469 431 l 390 522 l 468 603 l 468 783 l 300 631 l 300 428 l 469 280 l 469 431 z "},"¬":{"ha":618,"x_min":68,"x_max":550,"o":"m 432 408 l 68 408 l 68 566 l 549 566 l 550 208 l 432 208 l 432 408 z "},"®":{"ha":1097,"x_min":68,"x_max":1029,"o":"m 547 940 q 785 878 670 940 q 964 701 899 817 q 1029 460 1029 585 q 966 220 1029 334 q 788 42 902 106 q 547 -21 673 -21 q 309 42 423 -21 q 131 220 195 106 q 68 460 68 334 q 132 701 68 585 q 312 878 197 817 q 547 940 427 940 m 547 900 q 332 843 438 900 q 168 680 227 785 q 109 460 109 574 q 168 241 109 346 q 330 79 226 137 q 547 21 435 21 q 767 79 662 21 q 929 241 871 137 q 987 460 987 346 q 928 680 987 574 q 764 843 869 785 q 547 900 659 900 m 282 755 l 544 755 q 693 711 642 755 q 745 604 745 667 q 710 513 745 553 q 595 453 675 474 l 736 252 q 783 202 762 214 q 819 191 795 194 l 819 168 l 694 168 l 494 443 l 443 443 l 443 234 q 462 201 447 211 q 524 191 477 191 l 524 168 l 274 168 l 274 191 q 320 199 307 191 q 340 222 334 206 q 345 285 345 233 l 345 639 q 342 699 345 690 q 325 723 338 714 q 282 731 312 731 l 282 755 m 443 473 q 560 488 524 473 q 616 532 597 504 q 636 596 636 561 q 597 688 636 650 q 500 726 559 726 q 443 715 473 726 l 443 473 z "},"¯":{"ha":489,"x_min":68,"x_max":421,"o":"m 68 1149 l 421 1149 l 421 990 l 68 990 l 68 1149 z "},"°":{"ha":470,"x_min":68,"x_max":402,"o":"m 402 974 l 402 487 l 68 487 l 68 974 l 402 974 m 315 890 l 161 890 l 161 570 l 315 570 l 315 890 z "},"±":{"ha":617,"x_min":68,"x_max":549,"o":"m 395 408 l 395 235 l 237 235 l 237 408 l 68 408 l 68 566 l 237 566 l 237 717 l 395 717 l 395 566 l 549 566 l 549 408 l 395 408 m 68 159 l 549 159 l 549 0 l 68 0 l 68 159 z "},"²":{"ha":470,"x_min":68,"x_max":402,"o":"m 402 570 l 402 487 l 68 487 l 68 770 l 315 770 l 315 890 l 68 890 l 68 974 l 402 974 l 402 691 l 161 691 l 161 570 l 402 570 z "},"³":{"ha":470,"x_min":68,"x_max":402,"o":"m 68 890 l 68 974 l 402 974 l 402 487 l 68 487 l 68 570 l 315 570 l 315 691 l 68 691 l 68 770 l 315 770 l 315 890 l 68 890 z "},"´":{"ha":307,"x_min":68,"x_max":239,"o":"m 137 1141 l 68 998 l 170 998 l 239 1141 l 137 1141 z "},"µ":{"ha":806,"x_min":68,"x_max":738,"o":"m 239 -224 l 68 -224 l 69 661 l 245 661 l 245 167 l 551 167 l 551 661 l 738 661 l 738 0 l 239 0 l 239 -224 z "},"¶":{"ha":751,"x_min":68,"x_max":684,"o":"m 639 901 l 639 -110 l 565 -110 l 565 310 l 512 310 l 512 -110 l 427 -110 l 427 306 q 135 416 203 306 q 74 642 68 526 q 133 844 80 758 q 237 956 186 929 q 684 970 288 982 l 684 901 l 639 901 z "},"·":{"ha":323,"x_min":68,"x_max":255,"o":"m 255 631 l 255 456 l 68 456 l 68 631 l 255 631 z "},"¸":{"ha":283,"x_min":68,"x_max":215,"o":"m 68 -151 l 68 -212 q 158 -201 121 -212 q 205 -144 195 -191 q 150 -49 215 -98 l 199 0 l 138 0 l 88 -53 l 88 -98 q 138 -114 138 -98 q 130 -146 138 -130 q 68 -151 121 -163 z "},"¹":{"ha":229,"x_min":68,"x_max":161,"o":"m 161 487 l 68 487 l 68 974 l 161 974 l 161 487 z "},"º":{"ha":470,"x_min":68,"x_max":402,"o":"m 402 974 l 402 487 l 68 487 l 68 974 l 402 974 m 315 890 l 161 890 l 161 570 l 315 570 l 315 890 z "},"»":{"ha":537,"x_min":68,"x_max":469,"o":"m 300 280 l 469 428 l 469 631 l 302 783 l 302 603 l 380 522 l 300 431 l 300 280 m 68 280 l 237 428 l 237 631 l 69 783 l 69 603 l 147 522 l 68 431 l 68 280 z "},"¼":{"ha":996,"x_min":68,"x_max":928,"o":"m 255 0 l 68 0 l 704 974 l 891 974 l 255 0 m 292 487 l 199 487 l 199 974 l 292 974 l 292 487 m 593 202 l 593 485 l 687 485 l 687 281 l 840 281 l 840 485 l 928 485 l 928 -2 l 840 -2 l 840 202 l 593 202 z "},"½":{"ha":1044,"x_min":68,"x_max":977,"o":"m 255 0 l 68 0 l 704 974 l 891 974 l 255 0 m 292 487 l 199 487 l 199 974 l 292 974 l 292 487 m 977 85 l 977 2 l 642 2 l 642 286 l 889 286 l 889 406 l 642 406 l 642 489 l 977 489 l 977 206 l 736 206 l 736 85 l 977 85 z "},"¾":{"ha":1036,"x_min":68,"x_max":968,"o":"m 296 0 l 109 0 l 745 974 l 932 974 l 296 0 m 634 202 l 634 485 l 728 485 l 728 281 l 881 281 l 881 485 l 968 485 l 968 -2 l 881 -2 l 881 202 l 634 202 m 68 890 l 68 974 l 402 974 l 402 487 l 68 487 l 68 570 l 315 570 l 315 691 l 68 691 l 68 770 l 315 770 l 315 890 l 68 890 z "},"¿":{"ha":804,"x_min":68,"x_max":736,"o":"m 736 721 l 736 408 l 243 408 l 243 167 l 736 167 l 736 0 l 68 0 l 68 566 l 549 566 l 549 721 l 736 721 m 549 799 l 549 974 l 736 974 l 736 799 l 549 799 z "},"À":{"ha":804,"x_min":68,"x_max":736,"o":"m 561 408 l 255 408 l 255 0 l 68 0 l 68 974 l 736 974 l 736 0 l 561 0 l 561 408 m 255 807 l 255 566 l 561 566 l 561 807 l 255 807 m 304 1141 l 374 998 l 476 998 l 407 1141 l 304 1141 z "},"Á":{"ha":804,"x_min":68,"x_max":736,"o":"m 561 408 l 255 408 l 255 0 l 68 0 l 68 974 l 736 974 l 736 0 l 561 0 l 561 408 m 255 807 l 255 566 l 561 566 l 561 807 l 255 807 m 410 1141 l 341 998 l 443 998 l 513 1141 l 410 1141 z "},"Â":{"ha":804,"x_min":68,"x_max":736,"o":"m 561 408 l 255 408 l 255 0 l 68 0 l 68 974 l 736 974 l 736 0 l 561 0 l 561 408 m 255 807 l 255 566 l 561 566 l 561 807 l 255 807 m 439 999 l 541 999 l 471 1142 l 369 1142 l 369 1141 l 324 1141 l 255 998 l 357 998 l 398 1082 l 439 999 z "},"Ã":{"ha":804,"x_min":68,"x_max":736,"o":"m 561 408 l 255 408 l 255 0 l 68 0 l 68 974 l 736 974 l 736 0 l 561 0 l 561 408 m 255 807 l 255 566 l 561 566 l 561 807 l 255 807 m 214 1078 l 259 991 q 402 1003 316 1058 q 591 1069 489 948 l 538 1137 q 397 1116 463 1066 q 214 1078 331 1165 z "},"Ä":{"ha":804,"x_min":68,"x_max":736,"o":"m 561 408 l 255 408 l 255 0 l 68 0 l 68 974 l 736 974 l 736 0 l 561 0 l 561 408 m 255 807 l 255 566 l 561 566 l 561 807 l 255 807 m 365 1157 l 365 982 l 178 982 l 178 1157 l 365 1157 m 642 1158 l 642 983 l 455 983 l 455 1158 l 642 1158 z "},"Å":{"ha":804,"x_min":68,"x_max":736,"o":"m 561 408 l 255 408 l 255 0 l 68 0 l 68 974 l 736 974 l 736 0 l 561 0 l 561 408 m 255 807 l 255 566 l 561 566 l 561 807 l 255 807 m 384 1149 q 443 1125 418 1149 q 467 1065 467 1100 q 443 1006 467 1031 q 384 982 418 982 q 325 1006 349 982 q 300 1065 300 1031 q 325 1125 300 1100 q 384 1149 349 1149 m 384 1105 q 357 1093 368 1105 q 345 1065 345 1082 q 357 1038 345 1050 q 384 1027 368 1027 q 411 1038 400 1027 q 422 1065 422 1050 q 411 1093 422 1082 q 384 1105 400 1105 z "},"Æ":{"ha":1293,"x_min":68,"x_max":1225,"o":"m 557 408 l 255 408 l 255 0 l 68 0 l 68 974 l 1225 974 l 1225 807 l 744 807 l 744 566 l 1225 566 l 1225 408 l 744 408 l 744 167 l 1225 167 l 1225 0 l 557 0 l 557 408 m 557 566 l 557 807 l 255 807 l 255 566 l 557 566 z "},"Ç":{"ha":804,"x_min":68,"x_max":736,"o":"m 255 167 l 736 167 l 736 0 l 68 0 l 68 974 l 736 974 l 736 807 l 255 807 l 255 167 m 325 -151 l 325 -212 q 415 -201 378 -212 q 462 -144 452 -191 q 407 -49 472 -98 l 456 0 l 395 0 l 345 -53 l 345 -98 q 395 -114 395 -98 q 387 -146 395 -130 q 325 -151 378 -163 z "},"È":{"ha":804,"x_min":68,"x_max":736,"o":"m 255 807 l 255 566 l 736 566 l 736 408 l 255 408 l 255 167 l 736 167 l 736 0 l 68 0 l 68 974 l 736 974 l 736 807 l 255 807 m 317 1141 l 387 998 l 488 998 l 419 1141 l 317 1141 z "},"É":{"ha":804,"x_min":68,"x_max":736,"o":"m 255 807 l 255 566 l 736 566 l 736 408 l 255 408 l 255 167 l 736 167 l 736 0 l 68 0 l 68 974 l 736 974 l 736 807 l 255 807 m 410 1141 l 341 998 l 443 998 l 513 1141 l 410 1141 z "},"Ê":{"ha":804,"x_min":68,"x_max":736,"o":"m 255 807 l 255 566 l 736 566 l 736 408 l 255 408 l 255 167 l 736 167 l 736 0 l 68 0 l 68 974 l 736 974 l 736 807 l 255 807 m 447 999 l 549 999 l 479 1142 l 377 1142 l 377 1141 l 332 1141 l 263 998 l 365 998 l 406 1082 l 447 999 z "},"Ë":{"ha":804,"x_min":68,"x_max":736,"o":"m 255 807 l 255 566 l 736 566 l 736 408 l 255 408 l 255 167 l 736 167 l 736 0 l 68 0 l 68 974 l 736 974 l 736 807 l 255 807 m 361 1157 l 361 982 l 174 982 l 174 1157 l 361 1157 m 638 1158 l 638 983 l 451 983 l 451 1158 l 638 1158 z "},"Ì":{"ha":323,"x_min":68,"x_max":255,"o":"m 255 0 l 68 0 l 68 974 l 255 974 l 255 0 m 68 1141 l 138 998 l 239 998 l 170 1141 l 68 1141 z "},"Í":{"ha":328,"x_min":68,"x_max":260,"o":"m 255 0 l 68 0 l 68 974 l 255 974 l 255 0 m 157 1141 l 88 998 l 190 998 l 260 1141 l 157 1141 z "},"Î":{"ha":421,"x_min":68,"x_max":353,"o":"m 300 0 l 113 0 l 113 974 l 300 974 l 300 0 m 252 999 l 353 999 l 284 1142 l 182 1142 l 182 1141 l 137 1141 l 68 998 l 170 998 l 211 1082 l 252 999 z "},"Ï":{"ha":600,"x_min":68,"x_max":532,"o":"m 389 0 l 202 0 l 202 974 l 389 974 l 389 0 m 255 1157 l 255 982 l 68 982 l 68 1157 l 255 1157 m 532 1158 l 532 983 l 345 983 l 345 1158 l 532 1158 z "},"Ð":{"ha":894,"x_min":68,"x_max":826,"o":"m 345 408 l 345 167 l 650 167 l 650 807 l 345 807 l 345 566 l 433 566 l 433 408 l 345 408 m 157 566 l 157 974 l 755 974 l 826 888 l 826 85 l 756 0 l 157 0 l 157 408 l 68 408 l 68 566 l 157 566 z "},"Ñ":{"ha":804,"x_min":68,"x_max":736,"o":"m 255 0 l 68 0 l 68 974 l 255 974 l 561 428 l 561 974 l 736 974 l 736 0 l 561 0 l 255 562 l 255 0 m 227 1078 l 271 991 q 415 1003 328 1058 q 603 1069 501 948 l 550 1137 q 409 1116 475 1066 q 227 1078 343 1165 z "},"Ò":{"ha":804,"x_min":68,"x_max":736,"o":"m 736 974 l 736 0 l 68 0 l 68 974 l 736 974 m 561 807 l 255 807 l 255 167 l 561 167 l 561 807 m 284 1141 l 354 998 l 456 998 l 387 1141 l 284 1141 z "},"Ó":{"ha":804,"x_min":68,"x_max":736,"o":"m 736 974 l 736 0 l 68 0 l 68 974 l 736 974 m 561 807 l 255 807 l 255 167 l 561 167 l 561 807 m 402 1141 l 333 998 l 435 998 l 505 1141 l 402 1141 z "},"Ô":{"ha":804,"x_min":68,"x_max":736,"o":"m 736 974 l 736 0 l 68 0 l 68 974 l 736 974 m 561 807 l 255 807 l 255 167 l 561 167 l 561 807 m 443 999 l 545 999 l 475 1142 l 373 1142 l 373 1141 l 328 1141 l 259 998 l 361 998 l 402 1082 l 443 999 z "},"Õ":{"ha":804,"x_min":68,"x_max":736,"o":"m 736 974 l 736 0 l 68 0 l 68 974 l 736 974 m 561 807 l 255 807 l 255 167 l 561 167 l 561 807 m 206 1078 l 251 991 q 394 1003 308 1058 q 583 1069 481 948 l 530 1137 q 389 1116 455 1066 q 206 1078 323 1165 z "},"Ö":{"ha":804,"x_min":68,"x_max":736,"o":"m 736 974 l 736 0 l 68 0 l 68 974 l 736 974 m 561 807 l 255 807 l 255 167 l 561 167 l 561 807 m 353 1157 l 353 982 l 165 982 l 165 1157 l 353 1157 m 630 1158 l 630 983 l 443 983 l 443 1158 l 630 1158 z "},"×":{"ha":602,"x_min":68,"x_max":534,"o":"m 412 568 l 534 446 l 421 334 l 300 456 l 180 336 l 68 448 l 187 568 l 81 675 l 193 787 l 300 680 l 408 789 l 520 677 l 412 568 z "},"Ø":{"ha":898,"x_min":68,"x_max":830,"o":"m 395 167 l 610 167 l 610 623 l 395 167 m 304 372 l 509 807 l 304 807 l 304 372 m 774 974 l 785 974 l 785 0 l 316 0 l 255 -130 l 68 -130 l 129 0 l 117 0 l 117 974 l 587 974 l 643 1092 l 830 1092 l 774 974 z "},"Ù":{"ha":804,"x_min":68,"x_max":736,"o":"m 304 1141 l 374 998 l 476 998 l 407 1141 l 304 1141 m 561 974 l 736 974 l 736 0 l 68 0 l 68 974 l 255 974 l 255 167 l 561 167 l 561 974 z "},"Ú":{"ha":804,"x_min":68,"x_max":736,"o":"m 561 974 l 736 974 l 736 0 l 68 0 l 68 974 l 255 974 l 255 167 l 561 167 l 561 974 m 406 1141 l 337 998 l 439 998 l 509 1141 l 406 1141 z "},"Û":{"ha":804,"x_min":68,"x_max":736,"o":"m 561 974 l 736 974 l 736 0 l 68 0 l 68 974 l 255 974 l 255 167 l 561 167 l 561 974 m 443 999 l 545 999 l 475 1142 l 373 1142 l 373 1141 l 328 1141 l 259 998 l 361 998 l 402 1082 l 443 999 z "},"Ü":{"ha":804,"x_min":68,"x_max":736,"o":"m 561 974 l 736 974 l 736 0 l 68 0 l 68 974 l 255 974 l 255 167 l 561 167 l 561 974 m 349 1157 l 349 982 l 161 982 l 161 1157 l 349 1157 m 626 1158 l 626 983 l 439 983 l 439 1158 l 626 1158 z "},"Ý":{"ha":804,"x_min":68,"x_max":736,"o":"m 491 487 l 491 0 l 304 0 l 304 487 l 68 974 l 255 974 l 406 665 l 561 974 l 736 974 l 491 487 m 398 1141 l 329 998 l 431 998 l 500 1141 l 398 1141 z "},"Þ":{"ha":804,"x_min":68,"x_max":736,"o":"m 255 783 l 736 783 l 736 216 l 255 216 l 255 167 l 257 167 l 257 0 l 68 0 l 68 974 l 255 974 l 255 783 m 255 375 l 561 375 l 561 616 l 255 616 l 255 375 z "},"ß":{"ha":1609,"x_min":68,"x_max":1541,"o":"m 872 408 l 872 974 l 1541 974 l 1541 807 l 1059 807 l 1059 566 l 1541 566 l 1541 0 l 872 0 l 872 167 l 1365 167 l 1365 408 l 872 408 m 68 408 l 68 974 l 736 974 l 736 807 l 255 807 l 255 566 l 736 566 l 736 0 l 68 0 l 68 167 l 561 167 l 561 408 l 68 408 z "},"à":{"ha":804,"x_min":68,"x_max":736,"o":"m 561 408 l 255 408 l 255 0 l 68 0 l 68 974 l 736 974 l 736 0 l 561 0 l 561 408 m 255 807 l 255 566 l 561 566 l 561 807 l 255 807 m 304 1141 l 374 998 l 476 998 l 407 1141 l 304 1141 z "},"á":{"ha":804,"x_min":68,"x_max":736,"o":"m 561 408 l 255 408 l 255 0 l 68 0 l 68 974 l 736 974 l 736 0 l 561 0 l 561 408 m 255 807 l 255 566 l 561 566 l 561 807 l 255 807 m 410 1141 l 341 998 l 443 998 l 513 1141 l 410 1141 z "},"â":{"ha":804,"x_min":68,"x_max":736,"o":"m 561 408 l 255 408 l 255 0 l 68 0 l 68 974 l 736 974 l 736 0 l 561 0 l 561 408 m 255 807 l 255 566 l 561 566 l 561 807 l 255 807 m 439 999 l 541 999 l 471 1142 l 369 1142 l 369 1141 l 324 1141 l 255 998 l 357 998 l 398 1082 l 439 999 z "},"ã":{"ha":804,"x_min":68,"x_max":736,"o":"m 561 408 l 255 408 l 255 0 l 68 0 l 68 974 l 736 974 l 736 0 l 561 0 l 561 408 m 255 807 l 255 566 l 561 566 l 561 807 l 255 807 m 214 1078 l 259 991 q 402 1003 316 1058 q 591 1069 489 948 l 538 1137 q 397 1116 463 1066 q 214 1078 331 1165 z "},"ä":{"ha":804,"x_min":68,"x_max":736,"o":"m 561 408 l 255 408 l 255 0 l 68 0 l 68 974 l 736 974 l 736 0 l 561 0 l 561 408 m 255 807 l 255 566 l 561 566 l 561 807 l 255 807 m 365 1157 l 365 982 l 178 982 l 178 1157 l 365 1157 m 642 1158 l 642 983 l 455 983 l 455 1158 l 642 1158 z "},"å":{"ha":804,"x_min":68,"x_max":736,"o":"m 561 408 l 255 408 l 255 0 l 68 0 l 68 974 l 736 974 l 736 0 l 561 0 l 561 408 m 255 807 l 255 566 l 561 566 l 561 807 l 255 807 m 384 1149 q 443 1125 418 1149 q 467 1065 467 1100 q 443 1006 467 1031 q 384 982 418 982 q 325 1006 349 982 q 300 1065 300 1031 q 325 1125 300 1100 q 384 1149 349 1149 m 384 1105 q 357 1093 368 1105 q 345 1065 345 1082 q 357 1038 345 1050 q 384 1027 368 1027 q 411 1038 400 1027 q 422 1065 422 1050 q 411 1093 422 1082 q 384 1105 400 1105 z "},"æ":{"ha":1293,"x_min":68,"x_max":1225,"o":"m 557 408 l 255 408 l 255 0 l 68 0 l 68 974 l 1225 974 l 1225 807 l 744 807 l 744 566 l 1225 566 l 1225 408 l 744 408 l 744 167 l 1225 167 l 1225 0 l 557 0 l 557 408 m 557 566 l 557 807 l 255 807 l 255 566 l 557 566 z "},"ç":{"ha":804,"x_min":68,"x_max":736,"o":"m 255 167 l 736 167 l 736 0 l 68 0 l 68 974 l 736 974 l 736 807 l 255 807 l 255 167 m 325 -151 l 325 -212 q 415 -201 378 -212 q 462 -144 452 -191 q 407 -49 472 -98 l 456 0 l 395 0 l 345 -53 l 345 -98 q 395 -114 395 -98 q 387 -146 395 -130 q 325 -151 378 -163 z "},"è":{"ha":804,"x_min":68,"x_max":736,"o":"m 255 807 l 255 566 l 736 566 l 736 408 l 255 408 l 255 167 l 736 167 l 736 0 l 68 0 l 68 974 l 736 974 l 736 807 l 255 807 m 317 1141 l 387 998 l 488 998 l 419 1141 l 317 1141 z "},"é":{"ha":804,"x_min":68,"x_max":736,"o":"m 255 807 l 255 566 l 736 566 l 736 408 l 255 408 l 255 167 l 736 167 l 736 0 l 68 0 l 68 974 l 736 974 l 736 807 l 255 807 m 410 1141 l 341 998 l 443 998 l 513 1141 l 410 1141 z "},"ê":{"ha":804,"x_min":68,"x_max":736,"o":"m 255 807 l 255 566 l 736 566 l 736 408 l 255 408 l 255 167 l 736 167 l 736 0 l 68 0 l 68 974 l 736 974 l 736 807 l 255 807 m 447 999 l 549 999 l 479 1142 l 377 1142 l 377 1141 l 332 1141 l 263 998 l 365 998 l 406 1082 l 447 999 z "},"ë":{"ha":804,"x_min":68,"x_max":736,"o":"m 255 807 l 255 566 l 736 566 l 736 408 l 255 408 l 255 167 l 736 167 l 736 0 l 68 0 l 68 974 l 736 974 l 736 807 l 255 807 m 361 1157 l 361 982 l 174 982 l 174 1157 l 361 1157 m 638 1158 l 638 983 l 451 983 l 451 1158 l 638 1158 z "},"ì":{"ha":323,"x_min":68,"x_max":255,"o":"m 255 0 l 68 0 l 68 974 l 255 974 l 255 0 m 68 1141 l 138 998 l 239 998 l 170 1141 l 68 1141 z "},"í":{"ha":328,"x_min":68,"x_max":260,"o":"m 255 0 l 68 0 l 68 974 l 255 974 l 255 0 m 157 1141 l 88 998 l 190 998 l 260 1141 l 157 1141 z "},"î":{"ha":421,"x_min":68,"x_max":353,"o":"m 300 0 l 113 0 l 113 974 l 300 974 l 300 0 m 252 999 l 353 999 l 284 1142 l 182 1142 l 182 1141 l 137 1141 l 68 998 l 170 998 l 211 1082 l 252 999 z "},"ï":{"ha":600,"x_min":68,"x_max":532,"o":"m 389 0 l 202 0 l 202 974 l 389 974 l 389 0 m 255 1157 l 255 982 l 68 982 l 68 1157 l 255 1157 m 532 1158 l 532 983 l 345 983 l 345 1158 l 532 1158 z "},"ð":{"ha":894,"x_min":68,"x_max":826,"o":"m 345 408 l 345 167 l 650 167 l 650 807 l 345 807 l 345 566 l 433 566 l 433 408 l 345 408 m 157 566 l 157 974 l 755 974 l 826 888 l 826 85 l 756 0 l 157 0 l 157 408 l 68 408 l 68 566 l 157 566 z "},"ñ":{"ha":804,"x_min":68,"x_max":736,"o":"m 255 0 l 68 0 l 68 974 l 255 974 l 561 428 l 561 974 l 736 974 l 736 0 l 561 0 l 255 562 l 255 0 m 227 1078 l 271 991 q 415 1003 328 1058 q 603 1069 501 948 l 550 1137 q 409 1116 475 1066 q 227 1078 343 1165 z "},"ò":{"ha":804,"x_min":68,"x_max":736,"o":"m 736 974 l 736 0 l 68 0 l 68 974 l 736 974 m 561 807 l 255 807 l 255 167 l 561 167 l 561 807 m 284 1141 l 354 998 l 456 998 l 387 1141 l 284 1141 z "},"ó":{"ha":804,"x_min":68,"x_max":736,"o":"m 736 974 l 736 0 l 68 0 l 68 974 l 736 974 m 561 807 l 255 807 l 255 167 l 561 167 l 561 807 m 402 1141 l 333 998 l 435 998 l 505 1141 l 402 1141 z "},"ô":{"ha":804,"x_min":68,"x_max":736,"o":"m 736 974 l 736 0 l 68 0 l 68 974 l 736 974 m 561 807 l 255 807 l 255 167 l 561 167 l 561 807 m 443 999 l 545 999 l 475 1142 l 373 1142 l 373 1141 l 328 1141 l 259 998 l 361 998 l 402 1082 l 443 999 z "},"õ":{"ha":804,"x_min":68,"x_max":736,"o":"m 736 974 l 736 0 l 68 0 l 68 974 l 736 974 m 561 807 l 255 807 l 255 167 l 561 167 l 561 807 m 206 1078 l 251 991 q 394 1003 308 1058 q 583 1069 481 948 l 530 1137 q 389 1116 455 1066 q 206 1078 323 1165 z "},"ö":{"ha":804,"x_min":68,"x_max":736,"o":"m 736 974 l 736 0 l 68 0 l 68 974 l 736 974 m 561 807 l 255 807 l 255 167 l 561 167 l 561 807 m 353 1157 l 353 982 l 165 982 l 165 1157 l 353 1157 m 630 1158 l 630 983 l 443 983 l 443 1158 l 630 1158 z "},"÷":{"ha":617,"x_min":68,"x_max":549,"o":"m 68 566 l 549 566 l 549 408 l 68 408 l 68 566 m 406 799 l 406 624 l 219 624 l 219 799 l 406 799 m 406 342 l 406 168 l 219 168 l 219 342 l 406 342 z "},"ø":{"ha":898,"x_min":68,"x_max":830,"o":"m 395 167 l 610 167 l 610 623 l 395 167 m 304 372 l 509 807 l 304 807 l 304 372 m 774 974 l 785 974 l 785 0 l 316 0 l 255 -130 l 68 -130 l 129 0 l 117 0 l 117 974 l 587 974 l 643 1092 l 830 1092 l 774 974 z "},"ù":{"ha":804,"x_min":68,"x_max":736,"o":"m 304 1141 l 374 998 l 476 998 l 407 1141 l 304 1141 m 561 974 l 736 974 l 736 0 l 68 0 l 68 974 l 255 974 l 255 167 l 561 167 l 561 974 z "},"ú":{"ha":804,"x_min":68,"x_max":736,"o":"m 561 974 l 736 974 l 736 0 l 68 0 l 68 974 l 255 974 l 255 167 l 561 167 l 561 974 m 406 1141 l 337 998 l 439 998 l 509 1141 l 406 1141 z "},"û":{"ha":804,"x_min":68,"x_max":736,"o":"m 561 974 l 736 974 l 736 0 l 68 0 l 68 974 l 255 974 l 255 167 l 561 167 l 561 974 m 443 999 l 545 999 l 475 1142 l 373 1142 l 373 1141 l 328 1141 l 259 998 l 361 998 l 402 1082 l 443 999 z "},"ü":{"ha":804,"x_min":68,"x_max":736,"o":"m 561 974 l 736 974 l 736 0 l 68 0 l 68 974 l 255 974 l 255 167 l 561 167 l 561 974 m 349 1157 l 349 982 l 161 982 l 161 1157 l 349 1157 m 626 1158 l 626 983 l 439 983 l 439 1158 l 626 1158 z "},"ý":{"ha":804,"x_min":68,"x_max":736,"o":"m 491 487 l 491 0 l 304 0 l 304 487 l 68 974 l 255 974 l 406 665 l 561 974 l 736 974 l 491 487 m 398 1141 l 329 998 l 431 998 l 500 1141 l 398 1141 z "},"þ":{"ha":804,"x_min":68,"x_max":736,"o":"m 255 783 l 736 783 l 736 216 l 255 216 l 255 167 l 257 167 l 257 0 l 68 0 l 68 974 l 255 974 l 255 783 m 255 375 l 561 375 l 561 616 l 255 616 l 255 375 z "},"ÿ":{"ha":804,"x_min":68,"x_max":736,"o":"m 491 487 l 491 0 l 304 0 l 304 487 l 68 974 l 255 974 l 406 665 l 561 974 l 736 974 l 491 487 m 353 1157 l 353 982 l 165 982 l 165 1157 l 353 1157 m 630 1158 l 630 983 l 443 983 l 443 1158 l 630 1158 z "},"ı":{"ha":323,"x_min":68,"x_max":255,"o":"m 255 0 l 68 0 l 68 974 l 255 974 l 255 0 z "},"ˆ":{"ha":421,"x_min":68,"x_max":353,"o":"m 252 999 l 353 999 l 284 1142 l 182 1142 l 182 1141 l 137 1141 l 68 998 l 170 998 l 211 1082 l 252 999 z "},"ˇ":{"ha":421,"x_min":68,"x_max":353,"o":"m 170 1141 l 68 1141 l 137 998 l 239 998 l 239 999 l 284 999 l 353 1142 l 252 1142 l 210 1058 l 170 1141 z "},"ˉ":{"ha":489,"x_min":68,"x_max":421,"o":"m 68 1149 l 421 1149 l 421 990 l 68 990 l 68 1149 z "},"˘":{"ha":421,"x_min":68,"x_max":353,"o":"m 170 1141 l 68 1141 q 211 999 137 998 q 353 1142 284 999 l 252 1142 q 170 1141 214 1029 z "},"˙":{"ha":323,"x_min":68,"x_max":255,"o":"m 255 1157 l 255 982 l 68 982 l 68 1157 l 255 1157 z "},"˚":{"ha":302,"x_min":68,"x_max":235,"o":"m 151 1149 q 210 1125 186 1149 q 235 1065 235 1100 q 210 1006 235 1031 q 151 982 186 982 q 92 1006 117 982 q 68 1065 68 1031 q 92 1125 68 1100 q 151 1149 117 1149 m 151 1105 q 124 1093 136 1105 q 113 1065 113 1082 q 124 1038 113 1050 q 151 1027 136 1027 q 179 1038 168 1027 q 190 1065 190 1050 q 179 1093 190 1082 q 151 1105 168 1105 z "},"˛":{"ha":339,"x_min":68,"x_max":271,"o":"m 68 0 l 165 0 q 184 -69 170 -33 q 271 -102 198 -106 l 271 -183 q 151 -146 206 -183 q 68 0 96 -110 z "},"˜":{"ha":512,"x_min":68,"x_max":444,"o":"m 68 1078 l 113 991 q 256 1003 170 1058 q 444 1069 342 948 l 391 1137 q 251 1116 317 1066 q 68 1078 184 1165 z "},"˝":{"ha":487,"x_min":68,"x_max":419,"o":"m 137 1141 l 68 998 l 170 998 l 239 1141 l 137 1141 m 317 1141 l 248 998 l 349 998 l 419 1141 l 317 1141 z "},"–":{"ha":799,"x_min":68,"x_max":731,"o":"m 68 566 l 731 566 l 731 408 l 68 408 l 68 566 z "},"—":{"ha":1145,"x_min":68,"x_max":1077,"o":"m 68 566 l 1077 566 l 1077 408 l 68 408 l 68 566 z "},"‘":{"ha":323,"x_min":68,"x_max":255,"o":"m 250 636 l 144 636 l 68 799 l 68 974 l 255 974 l 255 799 l 172 799 l 250 636 z "},"’":{"ha":323,"x_min":68,"x_max":255,"o":"m 151 799 l 68 799 l 68 974 l 255 974 l 255 799 l 179 636 l 73 636 l 151 799 z "},"‚":{"ha":323,"x_min":68,"x_max":255,"o":"m 151 0 l 68 0 l 68 175 l 255 175 l 255 0 l 179 -163 l 73 -163 l 151 0 z "},"“":{"ha":576,"x_min":68,"x_max":508,"o":"m 250 636 l 144 636 l 68 799 l 68 974 l 255 974 l 255 799 l 172 799 l 250 636 m 503 636 l 397 636 l 321 799 l 321 974 l 508 974 l 508 799 l 425 799 l 503 636 z "},"”":{"ha":576,"x_min":68,"x_max":508,"o":"m 151 799 l 68 799 l 68 974 l 255 974 l 255 799 l 179 636 l 73 636 l 151 799 m 404 799 l 321 799 l 321 974 l 508 974 l 508 799 l 432 636 l 326 636 l 404 799 z "},"„":{"ha":576,"x_min":68,"x_max":508,"o":"m 404 0 l 321 0 l 321 175 l 508 175 l 508 0 l 432 -163 l 326 -163 l 404 0 m 151 0 l 68 0 l 68 175 l 255 175 l 255 0 l 179 -163 l 73 -163 l 151 0 z "},"†":{"ha":718,"x_min":68,"x_max":650,"o":"m 320 697 l 68 697 l 68 795 l 320 795 l 320 1125 l 418 1125 l 418 795 l 650 795 l 650 697 l 418 697 l 418 -106 l 320 -106 l 320 697 z "},"‡":{"ha":718,"x_min":68,"x_max":650,"o":"m 320 697 l 68 697 l 68 795 l 320 795 l 320 1125 l 418 1125 l 418 795 l 650 795 l 650 697 l 418 697 l 418 347 l 650 347 l 650 249 l 418 249 l 418 -106 l 320 -106 l 320 249 l 68 249 l 68 347 l 320 347 l 320 697 z "},"•":{"ha":466,"x_min":68,"x_max":398,"o":"m 233 660 q 350 612 301 660 q 398 495 398 564 q 350 378 398 427 q 233 330 301 330 q 116 378 165 330 q 68 495 68 427 q 116 612 68 564 q 233 660 165 660 z "},"…":{"ha":918,"x_min":68,"x_max":850,"o":"m 255 175 l 255 0 l 68 0 l 68 175 l 255 175 m 557 175 l 557 0 l 370 0 l 370 175 l 557 175 m 850 176 l 850 1 l 663 1 l 663 176 l 850 176 z "},"‹":{"ha":304,"x_min":68,"x_max":237,"o":"m 237 431 l 157 522 l 235 603 l 235 783 l 68 631 l 68 428 l 237 280 l 237 431 z "},"›":{"ha":304,"x_min":68,"x_max":237,"o":"m 68 280 l 237 428 l 237 631 l 69 783 l 69 603 l 147 522 l 68 431 l 68 280 z "},"⁄":{"ha":959,"x_min":68,"x_max":891,"o":"m 255 0 l 68 0 l 704 974 l 891 974 l 255 0 z "},"₣":{"ha":1609,"x_min":68,"x_max":1541,"o":"m 1059 807 l 1059 566 l 1365 566 l 1365 807 l 1059 807 m 872 0 l 872 974 l 1541 974 l 1541 408 l 1312 408 l 1541 0 l 1365 0 l 1125 408 l 1059 408 l 1059 0 l 872 0 m 255 0 l 68 0 l 68 974 l 736 974 l 736 807 l 255 807 l 255 566 l 736 566 l 736 408 l 255 408 l 255 0 z "},"₤":{"ha":804,"x_min":68,"x_max":736,"o":"m 361 298 l 361 167 l 736 167 l 736 0 l 68 0 l 68 167 l 174 167 l 174 298 l 70 298 l 70 448 l 174 448 l 174 497 l 70 497 l 70 656 l 174 656 l 174 974 l 736 974 l 736 673 l 561 673 l 561 807 l 361 807 l 361 656 l 481 656 l 481 497 l 361 497 l 361 448 l 481 448 l 481 298 l 361 298 z "},"₧":{"ha":2413,"x_min":68,"x_max":2345,"o":"m 255 0 l 68 0 l 68 974 l 736 974 l 736 408 l 255 408 l 255 0 m 255 807 l 255 566 l 561 566 l 561 807 l 255 807 m 1125 807 l 872 807 l 872 974 l 1541 974 l 1541 807 l 1312 807 l 1312 0 l 1125 0 l 1125 807 m 1676 408 l 1676 974 l 2345 974 l 2345 807 l 1864 807 l 1864 566 l 2345 566 l 2345 0 l 1676 0 l 1676 167 l 2169 167 l 2169 408 l 1676 408 z "},"€":{"ha":908,"x_min":68,"x_max":840,"o":"m 172 656 l 172 974 l 840 974 l 840 807 l 359 807 l 359 656 l 479 656 l 479 497 l 359 497 l 359 448 l 479 448 l 479 298 l 359 298 l 359 167 l 840 167 l 840 0 l 172 0 l 172 298 l 68 298 l 68 448 l 172 448 l 172 497 l 68 497 l 68 656 l 172 656 z "},"№":{"ha":1931,"x_min":68,"x_max":1864,"o":"m 255 0 l 68 0 l 68 974 l 255 974 l 561 428 l 561 974 l 736 974 l 736 0 l 561 0 l 255 562 l 255 0 m 1541 974 l 1541 0 l 872 0 l 872 974 l 1541 974 m 1365 807 l 1059 807 l 1059 167 l 1365 167 l 1365 807 m 1864 175 l 1864 0 l 1676 0 l 1676 175 l 1864 175 z "},"™":{"ha":892,"x_min":68,"x_max":824,"o":"m 195 890 l 68 890 l 68 974 l 402 974 l 402 890 l 288 890 l 288 487 l 195 487 l 195 890 m 543 487 l 449 487 l 449 974 l 543 974 l 637 707 l 736 974 l 824 974 l 824 487 l 736 487 l 736 691 l 668 487 l 613 487 l 543 691 l 543 487 z "},"∂":{"ha":804,"x_min":68,"x_max":736,"o":"m 68 807 l 68 974 l 736 974 l 736 0 l 68 0 l 68 566 l 561 566 l 561 807 l 68 807 m 255 408 l 255 167 l 561 167 l 561 408 l 255 408 z "},"∆":{"ha":804,"x_min":68,"x_max":736,"o":"m 523 178 l 401 749 l 290 178 l 523 178 m 68 0 l 296 974 l 524 974 l 736 0 l 68 0 z "},"∏":{"ha":718,"x_min":68,"x_max":650,"o":"m 165 1027 l 165 -106 l 68 -106 l 68 1125 l 650 1125 l 650 -106 l 553 -106 l 553 1027 l 165 1027 z "},"∑":{"ha":718,"x_min":68,"x_max":650,"o":"m 68 1125 l 650 1125 l 650 1027 l 165 1027 l 410 512 l 165 -3 l 650 -3 l 650 -106 l 68 -106 l 68 1 l 317 507 l 68 1023 l 68 1125 z "},"−":{"ha":617,"x_min":68,"x_max":549,"o":"m 68 566 l 549 566 l 549 408 l 68 408 l 68 566 z "},"√":{"ha":770,"x_min":68,"x_max":702,"o":"m 208 460 l 68 459 l 245 -175 l 396 -175 l 702 945 l 559 945 l 315 85 l 208 460 z "},"∞":{"ha":1040,"x_min":68,"x_max":972,"o":"m 317 697 q 215 655 257 697 q 174 554 174 613 q 215 453 174 495 q 317 412 257 412 q 417 453 376 412 q 459 554 459 495 q 417 655 459 613 q 317 697 376 697 m 720 696 q 619 655 661 696 q 577 554 577 613 q 619 453 577 495 q 720 412 661 412 q 821 453 779 412 q 863 554 863 495 q 821 655 863 613 q 720 696 779 696 m 520 403 q 496 375 509 389 q 319 302 422 302 q 141 375 214 302 q 68 552 68 448 q 141 729 68 656 q 319 803 214 803 q 496 730 422 803 q 520 701 509 715 q 545 729 532 715 q 722 802 618 802 q 899 729 826 802 q 972 552 972 656 q 899 375 972 448 q 722 301 826 301 q 545 375 618 301 q 520 403 531 389 z "},"∫":{"ha":462,"x_min":68,"x_max":394,"o":"m 68 -20 l 68 -126 q 158 -116 109 -130 q 241 -71 207 -102 q 276 51 276 -41 q 272 475 276 142 q 278 856 268 807 q 319 907 288 905 q 394 909 349 909 l 394 1023 q 288 1015 333 1019 q 229 976 243 1010 q 201 917 215 941 q 186 134 186 892 q 164 10 186 45 q 68 -20 141 -24 z "},"≈":{"ha":600,"x_min":68,"x_max":532,"o":"m 68 631 l 123 529 q 300 543 193 608 q 532 622 407 478 l 467 701 q 293 675 374 617 q 68 631 212 734 m 68 411 l 123 309 q 300 323 193 388 q 532 402 407 258 l 467 481 q 293 456 374 397 q 68 411 212 514 z "},"≤":{"ha":617,"x_min":68,"x_max":549,"o":"m 68 159 l 549 159 l 549 0 l 68 0 l 68 159 m 68 688 l 549 871 l 549 713 l 195 556 l 549 355 l 549 196 l 68 432 l 68 688 z "},"≥":{"ha":617,"x_min":68,"x_max":549,"o":"m 68 159 l 549 159 l 549 0 l 68 0 l 68 159 m 549 432 l 68 196 l 68 355 l 422 556 l 68 713 l 68 871 l 549 688 l 549 432 z "},"":{"ha":1127,"x_min":68,"x_max":1059,"o":"m 255 0 l 68 0 l 68 974 l 736 974 l 736 807 l 255 807 l 255 566 l 736 566 l 736 408 l 255 408 l 255 0 m 1059 0 l 872 0 l 872 974 l 1059 974 l 1059 0 z "},"":{"ha":1609,"x_min":68,"x_max":1541,"o":"m 1059 167 l 1541 167 l 1541 0 l 872 0 l 872 974 l 1059 974 l 1059 167 m 255 0 l 68 0 l 68 974 l 736 974 l 736 807 l 255 807 l 255 566 l 736 566 l 736 408 l 255 408 l 255 0 z "}}}
